<svg width="272" height="72" viewBox="0 0 272 72" fill="none" xmlns="http://www.w3.org/2000/svg">
<path fill-rule="evenodd" clip-rule="evenodd" d="M260.784 43.0238C267.38 38.5205 270.554 33.979 270.35 29.6584C270.146 25.3377 266.557 21.1159 259.566 17.2551C252.632 13.426 242.638 10.1188 230.27 7.51525C205.548 2.31128 171.57 -0.0353464 134.206 1.73118C96.842 3.49771 63.2366 9.03963 39.1162 16.5528C27.0486 20.3117 17.411 24.5471 10.8695 29.0132C4.2737 33.5164 1.09963 38.0579 1.3039 42.3786C1.50818 46.6993 5.09657 50.9211 12.0878 54.7819C19.0215 58.6109 29.0157 61.9181 41.3841 64.5217C66.1058 69.7257 100.084 72.0723 137.448 70.3058C174.812 68.5393 208.417 62.9973 232.538 55.4841C244.605 51.7253 254.243 47.4899 260.784 43.0238ZM137.495 71.3047C212.342 67.766 272.27 49.0991 271.349 29.6111C270.427 10.1231 209.005 -2.80639 134.159 0.732295C59.3119 4.27098 -0.616358 22.9378 0.305018 42.4258C1.22639 61.9139 62.6485 74.8433 137.495 71.3047Z" fill="white" fill-opacity="0.34"/>
</svg>
