<svg width="18" height="18" viewBox="0 0 18 18" fill="none" xmlns="http://www.w3.org/2000/svg">
<path d="M14.625 0H5.25C4.25544 0 3.30161 0.379285 2.59835 1.05442C1.89509 1.72955 1.5 2.64522 1.5 3.6V14.4C1.5 15.3548 1.89509 16.2705 2.59835 16.9456C3.30161 17.6207 4.25544 18 5.25 18H14.625C15.1223 18 15.5992 17.8104 15.9508 17.4728C16.3025 17.1352 16.5 16.6774 16.5 16.2V1.8C16.5 1.32261 16.3025 0.864773 15.9508 0.527208C15.5992 0.189642 15.1223 0 14.625 0ZM3.375 3.6C3.375 3.12261 3.57254 2.66477 3.92417 2.32721C4.27581 1.98964 4.75272 1.8 5.25 1.8H14.625V10.8H5.25C4.5891 10.8027 3.94124 10.9768 3.375 11.304V3.6ZM5.25 16.2C4.75272 16.2 4.27581 16.0104 3.92417 15.6728C3.57254 15.3352 3.375 14.8774 3.375 14.4C3.375 13.9226 3.57254 13.4648 3.92417 13.1272C4.27581 12.7896 4.75272 12.6 5.25 12.6H14.625V16.2H5.25ZM7.125 5.4H10.875C11.1236 5.4 11.3621 5.30518 11.5379 5.1364C11.7137 4.96761 11.8125 4.73869 11.8125 4.5C11.8125 4.2613 11.7137 4.03239 11.5379 3.8636C11.3621 3.69482 11.1236 3.6 10.875 3.6H7.125C6.87636 3.6 6.6379 3.69482 6.46209 3.8636C6.28627 4.03239 6.1875 4.2613 6.1875 4.5C6.1875 4.73869 6.28627 4.96761 6.46209 5.1364C6.6379 5.30518 6.87636 5.4 7.125 5.4Z" fill="white" fill-opacity="0.8"/>
</svg>
