<svg width="454" height="113" viewBox="0 0 454 113" fill="none" xmlns="http://www.w3.org/2000/svg">
<rect width="454" height="112.099" rx="20" fill="white"/>
<path d="M0 20C0 8.9543 8.9543 0 20 0H133V112H20C8.95431 112 0 103.046 0 92V20Z" fill="#FCBA48"/>
<path d="M94.1629 78.4693H36.432C19.6172 74.5457 25.2222 57.1704 34.1901 55.489C38.674 41.5887 49.8839 42.9713 54.9283 45.4002C70.0617 21.2989 91.3604 37.5531 92.4814 47.6421C116.022 53.2471 107.054 79.0298 94.1629 78.4693Z" stroke="white" stroke-width="1.12099"/>
<path d="M171.542 33.9367V36.4545H163.019V52.2666H159.872V33.9367H171.542ZM162.063 40.9741H166.67C168.064 40.9741 169.255 41.2091 170.246 41.6791C171.236 42.1407 171.991 42.7911 172.512 43.6304C173.032 44.4697 173.292 45.4474 173.292 46.5637C173.292 47.403 173.145 48.1709 172.852 48.8675C172.558 49.5641 172.126 50.1684 171.555 50.6804C170.984 51.1839 170.288 51.5742 169.465 51.8512C168.651 52.1281 167.719 52.2666 166.67 52.2666H159.872V33.9367H163.045V49.7613H166.67C167.468 49.7613 168.122 49.6145 168.634 49.3207C169.146 49.0186 169.524 48.6241 169.767 48.1373C170.019 47.6506 170.145 47.1176 170.145 46.5385C170.145 45.9762 170.019 45.4642 169.767 45.0026C169.524 44.541 169.146 44.1717 168.634 43.8948C168.122 43.6178 167.468 43.4793 166.67 43.4793H162.063V40.9741ZM178.511 47.8352L183.861 38.6451H186.895V52.2666H183.861V43.0639L178.511 52.2666H175.477V38.6451H178.511V47.8352ZM196.167 38.6451V52.2666H193.121V38.6451H196.167ZM200.637 38.6451V41.037H188.727V38.6451H200.637ZM205.452 41.2636V57.5037H202.418V38.6451H205.213L205.452 41.2636ZM214.328 45.3299V45.5943C214.328 46.5847 214.21 47.5037 213.975 48.3514C213.748 49.1906 213.409 49.925 212.955 50.5545C212.511 51.1755 211.961 51.6581 211.306 52.0022C210.652 52.3463 209.896 52.5184 209.04 52.5184C208.192 52.5184 207.45 52.3631 206.812 52.0526C206.182 51.7337 205.649 51.2846 205.213 50.7055C204.777 50.1264 204.424 49.4466 204.155 48.6661C203.895 47.8772 203.711 47.0127 203.602 46.0727V45.053C203.711 44.0542 203.895 43.1478 204.155 42.3337C204.424 41.5196 204.777 40.8188 205.213 40.2313C205.649 39.6438 206.182 39.1906 206.812 38.8717C207.441 38.5527 208.176 38.3933 209.015 38.3933C209.871 38.3933 210.631 38.5611 211.294 38.8969C211.957 39.2242 212.515 39.6942 212.968 40.3068C213.421 40.9111 213.761 41.6413 213.988 42.4974C214.214 43.345 214.328 44.2892 214.328 45.3299ZM211.294 45.5943V45.3299C211.294 44.7005 211.235 44.1172 211.117 43.58C211 43.0345 210.815 42.5561 210.563 42.1449C210.312 41.7336 209.989 41.4147 209.594 41.1881C209.208 40.9531 208.742 40.8356 208.197 40.8356C207.659 40.8356 207.198 40.9279 206.812 41.1126C206.426 41.2888 206.103 41.5364 205.842 41.8553C205.582 42.1742 205.381 42.5477 205.238 42.9758C205.095 43.3954 204.995 43.8528 204.936 44.348V46.7903C205.037 47.3946 205.209 47.9485 205.452 48.4521C205.696 48.9556 206.04 49.3585 206.485 49.6606C206.938 49.9544 207.517 50.1013 208.222 50.1013C208.767 50.1013 209.233 49.9838 209.619 49.7488C210.005 49.5138 210.32 49.1906 210.563 48.7794C210.815 48.3597 211 47.8772 211.117 47.3316C211.235 46.7861 211.294 46.207 211.294 45.5943ZM219.785 47.8352L225.136 38.6451H228.17V52.2666H225.136V43.0639L219.785 52.2666H216.751V38.6451H219.785V47.8352ZM234.395 38.6451V52.2666H231.361V38.6451H234.395ZM243.283 38.6451L237.152 46.8406H233.69L233.287 44.0962H235.818L239.494 38.6451H243.283ZM239.733 52.2666L235.629 46.3245L238.021 44.5998L243.724 52.2666H239.733ZM250.478 50.1013C250.973 50.1013 251.418 50.0047 251.813 49.8117C252.216 49.6103 252.539 49.3333 252.782 48.9808C253.034 48.6283 253.172 48.2213 253.198 47.7597H256.055C256.039 48.6409 255.778 49.4424 255.275 50.1642C254.771 50.886 254.104 51.4609 253.273 51.8889C252.442 52.3086 251.523 52.5184 250.516 52.5184C249.475 52.5184 248.569 52.3421 247.797 51.9896C247.025 51.6287 246.383 51.1336 245.871 50.5041C245.359 49.8747 244.973 49.1487 244.712 48.3262C244.461 47.5037 244.335 46.6224 244.335 45.6824V45.2418C244.335 44.3018 244.461 43.4206 244.712 42.5981C244.973 41.7672 245.359 41.037 245.871 40.4076C246.383 39.7781 247.025 39.2871 247.797 38.9346C248.569 38.5737 249.471 38.3933 250.503 38.3933C251.595 38.3933 252.551 38.6115 253.374 39.0479C254.196 39.476 254.843 40.076 255.313 40.8482C255.791 41.6119 256.039 42.5016 256.055 43.5171H253.198C253.172 43.0135 253.046 42.5603 252.82 42.1575C252.602 41.7462 252.291 41.4189 251.888 41.1755C251.494 40.9321 251.02 40.8104 250.466 40.8104C249.853 40.8104 249.345 40.9363 248.942 41.1881C248.54 41.4315 248.225 41.7672 247.998 42.1952C247.772 42.6149 247.608 43.0891 247.507 43.6178C247.415 44.1382 247.369 44.6795 247.369 45.2418V45.6824C247.369 46.2448 247.415 46.7903 247.507 47.319C247.6 47.8478 247.759 48.322 247.986 48.7416C248.221 49.1529 248.54 49.4844 248.942 49.7362C249.345 49.9796 249.857 50.1013 250.478 50.1013ZM270.237 49.8495V52.2666H257.95V50.1894L263.918 43.6808C264.572 42.9422 265.088 42.3043 265.466 41.7672C265.844 41.2301 266.108 40.7475 266.259 40.3194C266.419 39.883 266.498 39.4592 266.498 39.0479C266.498 38.4688 266.389 37.9611 266.171 37.5246C265.961 37.0798 265.651 36.7315 265.239 36.4797C264.828 36.2195 264.329 36.0895 263.741 36.0895C263.061 36.0895 262.491 36.2363 262.029 36.5301C261.568 36.8238 261.219 37.2309 260.984 37.7512C260.749 38.2632 260.632 38.8507 260.632 39.5137H257.598C257.598 38.4478 257.841 37.4743 258.328 36.593C258.815 35.7034 259.52 34.9984 260.443 34.478C261.366 33.9493 262.478 33.6849 263.779 33.6849C265.004 33.6849 266.045 33.8905 266.901 34.3018C267.757 34.713 268.408 35.2963 268.852 36.0517C269.306 36.807 269.532 37.7009 269.532 38.7332C269.532 39.3039 269.44 39.8704 269.255 40.4327C269.071 40.9951 268.806 41.5574 268.462 42.1197C268.127 42.6736 267.728 43.2317 267.266 43.7941C266.805 44.348 266.297 44.9103 265.743 45.481L261.777 49.8495H270.237ZM284.973 45.7328V48.1499H271.755L271.654 46.3245L279.56 33.9367H281.99L279.358 38.4436L274.814 45.7328H284.973ZM282.682 33.9367V52.2666H279.648V33.9367H282.682Z" fill="#565656"/>
<path d="M295.941 42.037H295.38V42.5975H295.941V42.037ZM303.227 41.4766C303.227 45.5007 299.965 48.763 295.941 48.763V49.884C300.584 49.884 304.348 46.1198 304.348 41.4766H303.227ZM295.941 48.763C291.917 48.763 288.654 45.5007 288.654 41.4766H287.533C287.533 46.1198 291.298 49.884 295.941 49.884V48.763ZM288.654 41.4766C288.654 37.4524 291.917 34.1901 295.941 34.1901V33.0691C291.298 33.0691 287.533 36.8333 287.533 41.4766H288.654ZM295.941 34.1901C299.965 34.1901 303.227 37.4524 303.227 41.4766H304.348C304.348 36.8333 300.584 33.0691 295.941 33.0691V34.1901ZM295.38 38.1136V42.037H296.501V38.1136H295.38ZM295.941 42.5975H299.864V41.4766H295.941V42.5975Z" fill="#0D1238"/>
<path d="M168.386 73.5427C169.52 73.8521 170.405 74.3935 171.041 75.167C171.677 75.9233 171.995 76.8343 171.995 77.8999C171.995 78.9656 171.652 79.9024 170.964 80.7103C170.294 81.5009 169.391 82.1111 168.257 82.5408C167.14 82.9534 165.919 83.1596 164.596 83.1596C163.393 83.1596 162.198 82.9791 161.012 82.6182C159.826 82.2572 158.743 81.7158 157.763 80.9939L158.666 79.0859C159.456 79.7047 160.342 80.1688 161.321 80.4782C162.301 80.7876 163.289 80.9423 164.286 80.9423C165.73 80.9423 166.942 80.6415 167.922 80.0399C168.901 79.4211 169.391 78.5789 169.391 77.5132C169.391 76.6022 169.022 75.9061 168.283 75.4248C167.544 74.9263 166.504 74.6771 165.163 74.6771H161.141V72.5887H164.982C166.134 72.5887 167.028 72.3567 167.664 71.8926C168.317 71.4113 168.644 70.7495 168.644 69.9073C168.644 68.9619 168.222 68.2142 167.38 67.6642C166.538 67.1142 165.472 66.8392 164.183 66.8392C163.341 66.8392 162.482 66.9595 161.605 67.2001C160.746 67.4407 159.929 67.8017 159.156 68.283L158.331 66.1688C159.242 65.6531 160.204 65.2664 161.218 65.0086C162.232 64.7508 163.246 64.6218 164.261 64.6218C165.532 64.6218 166.701 64.8195 167.767 65.2148C168.833 65.6102 169.675 66.186 170.294 66.9423C170.93 67.6986 171.248 68.5838 171.248 69.5979C171.248 70.5089 170.99 71.3082 170.474 71.9957C169.976 72.6832 169.28 73.1989 168.386 73.5427Z" fill="#E7BF52"/>
<path d="M183.897 83.1596C182.075 83.1596 180.433 82.7643 178.972 81.9736C177.511 81.1658 176.36 80.0571 175.517 78.6476C174.692 77.2382 174.28 75.6654 174.28 73.9294C174.28 72.1934 174.692 70.6206 175.517 69.2112C176.36 67.8017 177.511 66.7016 178.972 65.911C180.433 65.1031 182.075 64.6992 183.897 64.6992C185.701 64.6992 187.334 65.1031 188.795 65.911C190.256 66.7016 191.399 67.8017 192.225 69.2112C193.05 70.6034 193.462 72.1762 193.462 73.9294C193.462 75.6826 193.05 77.264 192.225 78.6734C191.399 80.0657 190.256 81.1658 188.795 81.9736C187.334 82.7643 185.701 83.1596 183.897 83.1596ZM183.897 80.865C185.22 80.865 186.406 80.5642 187.455 79.9626C188.52 79.361 189.354 78.5359 189.956 77.4874C190.574 76.4217 190.884 75.2357 190.884 73.9294C190.884 72.6231 190.574 71.4457 189.956 70.3972C189.354 69.3315 188.52 68.4978 187.455 67.8962C186.406 67.2946 185.22 66.9938 183.897 66.9938C182.573 66.9938 181.37 67.2946 180.287 67.8962C179.221 68.4978 178.379 69.3315 177.76 70.3972C177.159 71.4457 176.858 72.6231 176.858 73.9294C176.858 75.2357 177.159 76.4217 177.76 77.4874C178.379 78.5359 179.221 79.361 180.287 79.9626C181.37 80.5642 182.573 80.865 183.897 80.865Z" fill="#E7BF52"/>
<path d="M211.359 64.9054V82.9534H208.832V67.1485H200.839L200.659 72.434C200.573 74.9263 200.367 76.946 200.04 78.4929C199.731 80.0399 199.232 81.2087 198.545 81.9994C197.857 82.7729 196.929 83.1596 195.76 83.1596C195.227 83.1596 194.686 83.0909 194.136 82.9534L194.316 80.6587C194.591 80.7274 194.866 80.7618 195.141 80.7618C195.88 80.7618 196.473 80.4696 196.92 79.8852C197.367 79.2836 197.702 78.3898 197.926 77.2038C198.149 76.0178 198.295 74.4536 198.364 72.5113L198.648 64.9054H211.359Z" fill="#E7BF52"/>
<path d="M224.586 83.1596C222.764 83.1596 221.123 82.7643 219.662 81.9736C218.201 81.1658 217.049 80.0571 216.207 78.6476C215.382 77.2382 214.969 75.6654 214.969 73.9294C214.969 72.1934 215.382 70.6206 216.207 69.2112C217.049 67.8017 218.201 66.7016 219.662 65.911C221.123 65.1031 222.764 64.6992 224.586 64.6992C226.391 64.6992 228.024 65.1031 229.485 65.911C230.946 66.7016 232.089 67.8017 232.914 69.2112C233.739 70.6034 234.151 72.1762 234.151 73.9294C234.151 75.6826 233.739 77.264 232.914 78.6734C232.089 80.0657 230.946 81.1658 229.485 81.9736C228.024 82.7643 226.391 83.1596 224.586 83.1596ZM224.586 80.865C225.91 80.865 227.096 80.5642 228.144 79.9626C229.21 79.361 230.043 78.5359 230.645 77.4874C231.264 76.4217 231.573 75.2357 231.573 73.9294C231.573 72.6231 231.264 71.4457 230.645 70.3972C230.043 69.3315 229.21 68.4978 228.144 67.8962C227.096 67.2946 225.91 66.9938 224.586 66.9938C223.263 66.9938 222.059 67.2946 220.976 67.8962C219.911 68.4978 219.069 69.3315 218.45 70.3972C217.848 71.4457 217.547 72.6231 217.547 73.9294C217.547 75.2357 217.848 76.4217 218.45 77.4874C219.069 78.5359 219.911 79.361 220.976 79.9626C222.059 80.5642 223.263 80.865 224.586 80.865Z" fill="#E7BF52"/>
<path d="M249.953 67.1485H243.766V82.9534H241.239V67.1485H235.077V64.9054H249.953V67.1485Z" fill="#E7BF52"/>
<path d="M260.441 83.1596C258.619 83.1596 256.978 82.7643 255.517 81.9736C254.056 81.1658 252.904 80.0571 252.062 78.6476C251.237 77.2382 250.824 75.6654 250.824 73.9294C250.824 72.1934 251.237 70.6206 252.062 69.2112C252.904 67.8017 254.056 66.7016 255.517 65.911C256.978 65.1031 258.619 64.6992 260.441 64.6992C262.246 64.6992 263.879 65.1031 265.34 65.911C266.801 66.7016 267.944 67.8017 268.769 69.2112C269.594 70.6034 270.007 72.1762 270.007 73.9294C270.007 75.6826 269.594 77.264 268.769 78.6734C267.944 80.0657 266.801 81.1658 265.34 81.9736C263.879 82.7643 262.246 83.1596 260.441 83.1596ZM260.441 80.865C261.765 80.865 262.951 80.5642 263.999 79.9626C265.065 79.361 265.899 78.5359 266.5 77.4874C267.119 76.4217 267.428 75.2357 267.428 73.9294C267.428 72.6231 267.119 71.4457 266.5 70.3972C265.899 69.3315 265.065 68.4978 263.999 67.8962C262.951 67.2946 261.765 66.9938 260.441 66.9938C259.118 66.9938 257.914 67.2946 256.832 67.8962C255.766 68.4978 254.924 69.3315 254.305 70.3972C253.703 71.4457 253.402 72.6231 253.402 73.9294C253.402 75.2357 253.703 76.4217 254.305 77.4874C254.924 78.5359 255.766 79.361 256.832 79.9626C257.914 80.5642 259.118 80.865 260.441 80.865Z" fill="#E7BF52"/>
<path d="M273.659 64.9054H276.211V78.8281L286.885 64.9054H289.257V82.9534H286.731V69.0565L276.031 82.9534H273.659V64.9054ZM281.419 63.6421C280.01 63.6421 278.919 63.3413 278.145 62.7397C277.389 62.1209 277.002 61.2443 276.985 60.1099H278.815C278.833 60.7802 279.065 61.3045 279.512 61.6826C279.976 62.0436 280.612 62.224 281.419 62.224C282.193 62.224 282.812 62.0436 283.276 61.6826C283.757 61.3045 284.006 60.7802 284.023 60.1099H285.828C285.811 61.2271 285.416 62.0951 284.642 62.7139C283.886 63.3327 282.812 63.6421 281.419 63.6421Z" fill="#E7BF52"/>
<path d="M316.324 64.9054V82.9534H313.797V67.1485H303.33V82.9534H300.777V64.9054H316.324Z" fill="#E7BF52"/>
<path d="M333.168 78.4414H323.576L321.591 82.9534H318.936L327.109 64.9054H329.661L337.86 82.9534H335.153L333.168 78.4414ZM332.265 76.3788L328.372 67.5353L324.479 76.3788H332.265Z" fill="#E7BF52"/>
<path d="M347.498 64.9054C349.836 64.9054 351.675 65.4641 353.015 66.5813C354.356 67.6986 355.026 69.2369 355.026 71.1964C355.026 73.1559 354.356 74.6943 353.015 75.8115C351.675 76.9288 349.836 77.4874 347.498 77.4874H343.038V82.9534H340.459V64.9054H347.498ZM347.421 75.2443C349.053 75.2443 350.3 74.9005 351.159 74.213C352.018 73.5083 352.448 72.5028 352.448 71.1964C352.448 69.8901 352.018 68.8932 351.159 68.2056C350.3 67.5009 349.053 67.1485 347.421 67.1485H343.038V75.2443H347.421Z" fill="#E7BF52"/>
<path d="M369.92 67.1485H363.732V82.9534H361.205V67.1485H355.043V64.9054H369.92V67.1485Z" fill="#E7BF52"/>
<path d="M388.059 64.9054V82.9534H385.48V74.9091H375.116V82.9534H372.538V64.9054H375.116V72.666H385.48V64.9054H388.059Z" fill="#E7BF52"/>
<path d="M406.269 80.7103V82.9534H393.172V64.9054H405.908V67.1485H395.75V72.6918H404.8V74.8834H395.75V80.7103H406.269Z" fill="#E7BF52"/>
<path d="M416.841 64.9054C419.179 64.9054 421.018 65.4641 422.359 66.5813C423.7 67.6986 424.37 69.2369 424.37 71.1964C424.37 73.1559 423.7 74.6943 422.359 75.8115C421.018 76.9288 419.179 77.4874 416.841 77.4874H412.381V82.9534H409.803V64.9054H416.841ZM416.764 75.2443C418.397 75.2443 419.643 74.9005 420.503 74.213C421.362 73.5083 421.792 72.5028 421.792 71.1964C421.792 69.8901 421.362 68.8932 420.503 68.2056C419.643 67.5009 418.397 67.1485 416.764 67.1485H412.381V75.2443H416.764Z" fill="#E7BF52"/>
</svg>
