<svg width="239" height="72" viewBox="0 0 239 72" fill="none" xmlns="http://www.w3.org/2000/svg">
<path d="M237.544 30.593C237.762 35.2208 234.819 39.881 229.059 44.3503C223.313 48.8094 214.858 53.0004 204.295 56.6921C183.176 64.0731 153.741 69.4197 121 70.9676C88.26 72.5155 58.4518 69.97 36.7304 64.6144C25.8664 61.9358 17.0541 58.5611 10.9126 54.6641C4.75694 50.7581 1.38654 46.3965 1.16774 41.7687C0.948944 37.1409 3.8928 32.4807 9.65249 28.0114C15.3989 23.5523 23.8535 19.3613 34.4163 15.6696C55.5356 8.28857 84.9707 2.94204 117.711 1.39411C150.451 -0.153826 180.26 2.39173 201.981 7.74733C212.845 10.4259 221.657 13.8006 227.799 17.6976C233.954 21.6036 237.325 25.9652 237.544 30.593Z" stroke="#E2463C" stroke-opacity="0.19"/>
</svg>
