<svg width="22" height="22" viewBox="0 0 22 22" fill="none" xmlns="http://www.w3.org/2000/svg">
<g clip-path="url(#clip0_295_1468)">
<path d="M2.75 8.25C2.75 6.06196 3.61919 3.96354 5.16637 2.41637C6.71354 0.869194 8.81196 0 11 0C13.188 0 15.2865 0.869194 16.8336 2.41637C18.3808 3.96354 19.25 6.06196 19.25 8.25C19.25 13.75 11 22 11 22C11 22 2.75 13.75 2.75 8.25ZM7.5625 8.25C7.5625 9.16168 7.92466 10.036 8.56932 10.6807C9.21398 11.3253 10.0883 11.6875 11 11.6875C11.9117 11.6875 12.786 11.3253 13.4307 10.6807C14.0753 10.036 14.4375 9.16168 14.4375 8.25C14.4375 7.33832 14.0753 6.46398 13.4307 5.81932C12.786 5.17466 11.9117 4.8125 11 4.8125C10.0883 4.8125 9.21398 5.17466 8.56932 5.81932C7.92466 6.46398 7.5625 7.33832 7.5625 8.25Z" fill="#77798E"/>
</g>
<defs>
<clipPath id="clip0_295_1468">
<rect width="22" height="22" fill="white"/>
</clipPath>
</defs>
</svg>
