<svg width="113" height="91" viewBox="0 0 113 91" fill="none" xmlns="http://www.w3.org/2000/svg">
<path d="M0 91V61.088C0 49.5725 1.82711 38.8997 5.48134 29.0695C9.41667 19.2392 16.0224 9.54938 25.2985 0L41.7425 12.2176C35.5585 18.9583 31.0609 25.2778 28.25 31.1759C25.4391 36.7932 23.7525 42.4105 23.1903 48.0278H43.0075V91H0ZM69.9925 91V61.088C69.9925 49.5725 71.8196 38.8997 75.4739 29.0695C79.4092 19.2392 86.0149 9.54938 95.291 0L111.735 12.2176C105.551 18.9583 101.053 25.2778 98.2425 31.1759C95.4316 36.7932 93.745 42.4105 93.1828 48.0278H113V91H69.9925Z" fill="#DAE0E6"/>
</svg>
