<svg width="32" height="32" viewBox="0 0 32 32" fill="none" xmlns="http://www.w3.org/2000/svg">
<path d="M8.00004 17.5003C8.00172 17.632 7.977 17.7628 7.92734 17.8849C7.87768 18.007 7.80408 18.1179 7.71089 18.2111C7.61769 18.3043 7.50678 18.3779 7.3847 18.4276C7.26262 18.4772 7.13183 18.5019 7.00004 18.5003H1.50004C1.31426 18.4987 1.13239 18.4468 0.973866 18.3499C0.815342 18.253 0.686128 18.1149 0.60004 17.9503C0.519987 17.7826 0.487004 17.5963 0.504618 17.4114C0.522231 17.2265 0.58978 17.0498 0.70004 16.9003C1.58502 15.7123 2.76593 14.777 4.12504 14.1878C3.54103 13.6532 3.09233 12.9875 2.81585 12.2456C2.53938 11.5037 2.44304 10.7068 2.53477 9.92035C2.6265 9.13394 2.90367 8.38056 3.34347 7.7222C3.78327 7.06385 4.37313 6.51935 5.0645 6.13352C5.75587 5.74768 6.52898 5.53155 7.32021 5.50291C8.11143 5.47426 8.89815 5.63393 9.6156 5.96875C10.3331 6.30358 10.9607 6.80401 11.447 7.42883C11.9333 8.05366 12.2642 8.78503 12.4125 9.56275C12.4495 9.76531 12.4239 9.97433 12.339 10.1619C12.2541 10.3495 12.1141 10.5068 11.9375 10.6128C10.3208 11.5714 9.09123 13.0664 8.46254 14.8378C8.15262 15.691 7.99605 16.5924 8.00004 17.5003ZM31.3 16.9003C30.4151 15.7123 29.2341 14.777 27.875 14.1878C28.459 13.6532 28.9078 12.9875 29.1842 12.2456C29.4607 11.5037 29.557 10.7068 29.4653 9.92035C29.3736 9.13394 29.0964 8.38056 28.6566 7.7222C28.2168 7.06385 27.6269 6.51935 26.9356 6.13352C26.2442 5.74768 25.4711 5.53155 24.6799 5.50291C23.8887 5.47426 23.1019 5.63393 22.3845 5.96875C21.667 6.30358 21.0393 6.80401 20.5531 7.42883C20.0668 8.05366 19.7359 8.78503 19.5875 9.56275C19.5506 9.76531 19.5762 9.97433 19.6611 10.1619C19.7459 10.3495 19.886 10.5068 20.0625 10.6128C21.6814 11.569 22.9117 13.0648 23.5375 14.8378C23.8475 15.691 24.004 16.5924 24 17.5003C23.9984 17.632 24.0231 17.7628 24.0727 17.8849C24.1224 18.007 24.196 18.1179 24.2892 18.2111C24.3824 18.3043 24.4933 18.3779 24.6154 18.4276C24.7375 18.4772 24.8683 18.5019 25 18.5003H30.5C30.6858 18.5003 30.8678 18.4485 31.0258 18.3509C31.1837 18.2533 31.3114 18.1136 31.3945 17.9475C31.4775 17.7814 31.5127 17.5954 31.496 17.4104C31.4793 17.2255 31.4115 17.0488 31.3 16.9003ZM19.65 22.2628C20.6453 21.4999 21.3765 20.4445 21.741 19.2447C22.1055 18.0449 22.0849 16.7611 21.6821 15.5736C21.2794 14.3861 20.5147 13.3546 19.4956 12.6241C18.4764 11.8935 17.254 11.5007 16 11.5007C14.7461 11.5007 13.5237 11.8935 12.5045 12.6241C11.4854 13.3546 10.7207 14.3861 10.3179 15.5736C9.91519 16.7611 9.89462 18.0449 10.2591 19.2447C10.6236 20.4445 11.3548 21.4999 12.35 22.2628C10.4057 23.126 8.82939 24.6491 7.90004 26.5628C7.8261 26.7148 7.79298 26.8835 7.80393 27.0523C7.81489 27.221 7.86955 27.384 7.96254 27.5253C8.04909 27.6701 8.17176 27.7901 8.31857 27.8733C8.46537 27.9566 8.63127 28.0003 8.80004 28.0003H23.2C23.3688 28.0003 23.5347 27.9566 23.6815 27.8733C23.8283 27.7901 23.951 27.6701 24.0375 27.5253C24.1305 27.384 24.1852 27.221 24.1961 27.0523C24.2071 26.8835 24.174 26.7148 24.1 26.5628C23.1707 24.6491 21.5944 23.126 19.65 22.2628Z" fill="#68CDEB"/>
</svg>
