<svg width="218" height="58" viewBox="0 0 218 58" fill="none" xmlns="http://www.w3.org/2000/svg">
<path d="M217.126 23.8763C217.295 27.4425 214.632 31.1103 209.321 34.6831C204.038 38.2362 196.276 41.5959 186.586 44.5742C167.212 50.5287 140.239 54.9259 110.265 56.3431C80.2897 57.7602 53.0225 55.9275 33.1733 51.8274C23.2449 49.7766 15.201 47.1642 9.6067 44.1254C3.9816 41.0697 0.9849 37.6695 0.816294 34.1033C0.647687 30.5371 3.31022 26.8693 8.62193 23.2965C13.9045 19.7434 21.6661 16.3837 31.3567 13.4054C50.7305 7.45089 77.7032 3.05371 107.678 1.63653C137.653 0.219346 164.92 2.05211 184.769 6.15215C194.698 8.20296 202.742 10.8153 208.336 13.8542C213.961 16.9099 216.958 20.3101 217.126 23.8763Z" stroke="#E2463C" stroke-opacity="0.19"/>
</svg>
