<svg width="70" height="23" viewBox="0 0 70 23" fill="none" xmlns="http://www.w3.org/2000/svg">
<path d="M68.7911 8.14834C68.9153 9.41242 68.2315 10.7855 66.6769 12.2046C65.1306 13.6162 62.7964 15.0012 59.8238 16.2727C53.8841 18.8133 45.5032 20.855 36.0929 21.7796C26.6826 22.7041 18.0646 22.3325 11.744 20.9965C8.58073 20.3279 6.02166 19.4236 4.23017 18.3399C2.42912 17.2505 1.49116 16.0368 1.36697 14.7727C1.24277 13.5086 1.92657 12.1355 3.48117 10.7164C5.02751 9.3048 7.36166 7.91978 10.3343 6.6483C16.274 4.10775 24.6549 2.06598 34.0652 1.14143C43.4755 0.216885 52.0935 0.588529 58.4141 1.92452C61.5774 2.59316 64.1364 3.49743 65.9279 4.58106C67.729 5.67048 68.6669 6.88425 68.7911 8.14834Z" stroke="#E2463C" stroke-opacity="0.5"/>
</svg>
