<svg width="42" height="42" viewBox="0 0 42 42" fill="none" xmlns="http://www.w3.org/2000/svg">
<path fill-rule="evenodd" clip-rule="evenodd" d="M40.215 10.6575C39.0757 8.631 37.8394 8.25825 35.322 8.1165C32.8073 7.94588 26.4836 7.875 21.0052 7.875C15.5164 7.875 9.19012 7.94588 6.678 8.11388C4.16587 8.25825 2.92687 8.62837 1.77713 10.6575C0.60375 12.6814 0 16.1674 0 22.3046V22.3256C0 28.4366 0.60375 31.9489 1.77713 33.9517C2.92687 35.9783 4.16325 36.3458 6.67537 36.5164C9.19012 36.6634 15.5164 36.75 21.0052 36.75C26.4836 36.75 32.8073 36.6634 35.3246 36.519C37.842 36.3484 39.0784 35.9809 40.2176 33.9544C41.4015 31.9515 42 28.4392 42 22.3282V22.3151V22.3073C42 16.1674 41.4015 12.6814 40.215 10.6575ZM15.75 30.1875V14.4375L28.875 22.3125L15.75 30.1875Z" fill="white"/>
</svg>
