<svg width="135" height="92" viewBox="0 0 135 92" fill="none" xmlns="http://www.w3.org/2000/svg">
<g clip-path="url(#clip0_271_784)">
<path d="M63.2097 16.7935C68.5534 16.7935 71.3878 19.6417 71.3878 24.0618C71.3878 28.731 68.29 32.1706 62.8845 32.1706H58.8574L58.687 42.0225H54.0403L54.474 16.809L63.2097 16.7935ZM58.8574 28.7777H61.4905C62.6521 28.7777 66.9115 28.6376 66.9115 24.3886C66.9115 20.1397 62.9464 20.0774 61.9551 20.0774H58.8574V28.7777Z" fill="white"/>
<path d="M72.6269 18.1474C75.2825 16.9138 78.1737 16.2764 81.0993 16.2798C82.6416 16.2089 84.1825 16.4477 85.6319 16.9822C87.0813 17.5166 88.4101 18.3361 89.5407 19.3925C90.7417 20.5901 91.6792 22.0276 92.2929 23.612C92.9065 25.1964 93.1825 26.8925 93.1031 28.5908C93.1695 30.5679 92.8328 32.5377 92.1136 34.3792C91.3944 36.2206 90.308 37.8948 88.9212 39.2988C86.4503 41.4934 83.233 42.6472 79.9377 42.5205C77.07 42.5237 74.2455 41.8182 71.7131 40.4661L73.1381 37.042C75.0039 37.932 77.0363 38.4147 79.1013 38.4583C81.3167 38.5403 83.4843 37.7976 85.1884 36.3728C86.7553 34.9427 87.7054 32.9549 87.837 30.832H77.2426V27.0967H87.8679C87.8801 26.0605 87.6428 25.0368 87.1762 24.1127C86.7096 23.1885 86.0277 22.3915 85.1884 21.7894C83.6393 20.7153 81.7877 20.1697 79.9067 20.233C77.7691 20.1856 75.6492 20.6329 73.7112 21.5404L72.6269 18.1474Z" fill="white"/>
<path d="M101.312 16.7935L100.956 38.0226H109.072L109.428 16.7935H114.075L113.703 37.9915H121.819L122.222 16.7935H126.869L126.482 42.0225H96.1854L96.6191 16.809L101.312 16.7935Z" fill="white"/>
<path d="M43.3376 41.9914V0L22.8924 21.2292L1.54877 41.9914H43.3376Z" fill="white"/>
<path d="M43.3376 47.5789V89.5703L22.5206 68.6835L1.54877 47.5789H43.3376Z" fill="white"/>
<path d="M54.536 81.1659L54.6444 75.0959H55.5428L55.4499 80.4032H57.8351L57.9281 75.0959H58.8574L58.7645 80.3877H61.1497L61.2427 75.0959H62.203L62.0946 81.1659H54.536Z" fill="white"/>
<path d="M65.1303 75.0959L65.0529 81.1658H64.0926L64.1855 75.0959H65.1303ZM68.6463 75.5472L66.1991 77.9597L68.8322 80.7767L68.0577 81.3681L65.1303 78.0063L68.0422 74.8936L68.6463 75.5472Z" fill="white"/>
<path d="M74.4391 75.9364C74.891 76.5292 75.1261 77.2601 75.1051 78.0064C75.1131 78.7665 74.915 79.5143 74.532 80.1698C74.2698 80.5437 73.9181 80.8452 73.5093 81.0465C73.1006 81.2477 72.648 81.3423 72.1932 81.3215C71.5309 81.3394 70.8872 81.0997 70.3965 80.6523C70.0696 80.3368 69.8155 79.9531 69.6523 79.5282C69.489 79.1033 69.4206 78.6476 69.4517 78.1932C69.4223 77.4025 69.6567 76.6246 70.1177 75.9831C70.3774 75.6483 70.7117 75.3794 71.0937 75.1983C71.4758 75.0171 71.8949 74.9288 72.3171 74.9403C72.7246 74.9218 73.1305 75.0027 73.5 75.1762C73.8696 75.3496 74.1918 75.6105 74.4391 75.9364ZM70.9077 76.4656C70.5992 76.9933 70.4437 77.597 70.4585 78.2088C70.4453 78.6641 70.5353 79.1165 70.7218 79.5317C70.8323 79.8509 71.0432 80.1254 71.3226 80.3135C71.6021 80.5016 71.9348 80.5932 72.2707 80.5745C72.5992 80.5773 72.9213 80.4829 73.1967 80.303C73.4721 80.1231 73.6888 79.8656 73.8196 79.5628C74.0521 79.0782 74.1637 78.5441 74.1448 78.0064C74.1708 77.4014 73.9965 76.8049 73.6492 76.31C73.5051 76.1067 73.3146 75.9412 73.0935 75.8274C72.8725 75.7136 72.6275 75.6549 72.3791 75.6563C72.0846 75.6491 71.7935 75.7201 71.5351 75.8622C71.2768 76.0043 71.0603 76.2125 70.9077 76.4656Z" fill="white"/>
<path d="M80.1545 81.1659L80.2474 75.8741H78.5282C78.4507 76.6212 78.3578 77.4305 78.2339 78.2399C78.163 78.9511 77.9746 79.6454 77.6763 80.2943C77.489 80.6098 77.2146 80.8639 76.8864 81.0258C76.5282 81.1919 76.1333 81.2616 75.7402 81.2281V80.4811C75.8962 80.4951 76.0534 80.4745 76.2006 80.4207C76.3478 80.3669 76.4815 80.2812 76.5921 80.1698C76.9174 79.8741 77.2271 79.2671 77.4595 77.5706C77.5834 76.6679 77.6608 75.8586 77.7073 75.0959H81.1768L81.0838 81.1659H80.1545Z" fill="white"/>
<path d="M83.9648 75.2828C84.3949 75.0566 84.8733 74.9391 85.3587 74.9404C85.5831 74.9217 85.8088 74.9524 86.0201 75.0304C86.2314 75.1083 86.4233 75.2316 86.5824 75.3917C86.8596 75.7729 86.9815 76.2461 86.9231 76.7146V79.594C86.9231 80.0142 86.9231 80.5122 87.2948 80.5122C87.4722 80.4868 87.6387 80.4112 87.775 80.2943L87.9918 80.7768C87.7203 81.0405 87.3623 81.1955 86.9851 81.2126C86.8571 81.215 86.73 81.1898 86.6125 81.1388C86.495 81.0878 86.3896 81.0121 86.3036 80.9169C86.1542 80.7277 86.0822 80.4883 86.1022 80.2476C85.9051 80.4805 85.6816 80.6895 85.4362 80.8702C85.1081 81.1288 84.7067 81.276 84.29 81.2904C84.0497 81.2908 83.8121 81.2396 83.5931 81.1403C83.3741 81.041 83.1787 80.8958 83.0199 80.7146C82.7326 80.3829 82.578 79.9558 82.5863 79.5161C82.5959 79.1423 82.718 78.7801 82.9364 78.4773C83.1548 78.1745 83.4593 77.9452 83.8099 77.8197C84.5207 77.5371 85.276 77.3843 86.0403 77.3683V77.0259C86.0786 76.6579 85.9853 76.2882 85.7769 75.9831C85.6899 75.8919 85.5832 75.8221 85.465 75.7789C85.3469 75.7357 85.2204 75.7204 85.0954 75.7341C84.768 75.7392 84.4476 75.8304 84.1661 75.9987C83.8981 76.1463 83.644 76.3182 83.4072 76.5123L82.9735 75.9053C83.2831 75.6661 83.6151 75.4576 83.9648 75.2828ZM86.0248 77.9286C85.4934 77.9784 84.9719 78.1042 84.4759 78.3022C84.2231 78.3772 84.0002 78.5304 83.839 78.7399C83.6777 78.9495 83.5863 79.2047 83.5775 79.4694C83.5754 79.6199 83.6063 79.769 83.6678 79.9061C83.7294 80.0433 83.8202 80.1652 83.9338 80.2632C84.1008 80.4231 84.3227 80.5122 84.5533 80.5122C84.842 80.4915 85.1175 80.3829 85.3433 80.2009C85.5601 80.0609 85.8854 79.7963 86.0248 79.6873V77.9286Z" fill="white"/>
<path d="M56.3637 62.3333C56.7573 62.3119 57.15 62.3888 57.5068 62.5572C57.8636 62.7256 58.1733 62.9802 58.4082 63.2983C58.7998 63.9164 59.0043 64.6356 58.9968 65.3683C59.0323 66.2883 58.7228 67.1881 58.1294 67.8897C57.8752 68.1637 57.565 68.3793 57.2202 68.5217C56.8753 68.6641 56.5039 68.7299 56.1313 68.7145C55.3391 68.7365 54.5686 68.4524 53.9784 67.9208L54.4431 67.3294C54.9088 67.71 55.485 67.9285 56.0849 67.9519C56.3434 67.9538 56.5993 67.899 56.8346 67.7915C57.07 67.684 57.2793 67.5263 57.4479 67.3294C57.7632 66.8724 57.9308 66.329 57.928 65.773H55.4808V65.0103H57.9435C57.941 64.4284 57.7132 63.8702 57.3085 63.4539C57.0159 63.2021 56.6403 63.069 56.2553 63.0804C55.6513 63.0976 55.0716 63.3229 54.6134 63.7185L54.2107 63.1894C54.7913 62.6351 55.5629 62.3283 56.3637 62.3333Z" fill="white"/>
<path d="M61.5369 62.5046L61.444 68.5746H60.4837L60.5766 62.5046H61.5369ZM65.0529 62.956L62.5902 65.3684L65.2388 68.1855L64.4643 68.7769L61.5215 65.3684L64.4488 62.2556L65.0529 62.956Z" fill="white"/>
<path d="M70.8457 63.345C71.282 63.9272 71.5111 64.6397 71.4963 65.3683C71.5113 66.1272 71.3184 66.8756 70.9387 67.5317C70.6764 67.9056 70.3247 68.207 69.9159 68.4083C69.5072 68.6096 69.0546 68.7042 68.5999 68.6834C67.9375 68.7013 67.2939 68.4615 66.8032 68.0142C66.4762 67.6987 66.2222 67.315 66.0589 66.8901C65.8957 66.4652 65.8272 66.0095 65.8583 65.5551C65.8616 64.7712 66.123 64.0105 66.6018 63.3917C66.8614 63.0568 67.1957 62.788 67.5778 62.6068C67.9598 62.4257 68.3789 62.3373 68.8012 62.3489C69.1958 62.3428 69.5862 62.4298 69.9413 62.6028C70.2964 62.7758 70.6061 63.03 70.8457 63.345ZM67.2988 63.8119C66.9904 64.3396 66.8348 64.9433 66.8496 65.5551C66.8343 66.0123 66.93 66.4663 67.1284 66.878C67.2465 67.1933 67.4587 67.4643 67.736 67.6537C68.0133 67.8432 68.342 67.9419 68.6773 67.9364C69.0067 67.9339 69.3282 67.8356 69.6031 67.6532C69.878 67.4709 70.0944 67.2125 70.2262 66.9091C70.4587 66.4245 70.5703 65.8904 70.5514 65.3527C70.531 64.7957 70.3419 64.2581 70.0093 63.8119C69.8653 63.6086 69.6747 63.4431 69.4537 63.3293C69.2326 63.2156 68.9876 63.1569 68.7393 63.1582C68.4646 63.1435 68.1905 63.1951 67.9398 63.3089C67.6892 63.4226 67.4694 63.5951 67.2988 63.8119Z" fill="white"/>
<path d="M76.7779 68.5746V65.7264H74.0209V68.5746H73.0606L73.169 62.5046H74.1448V64.9482H76.9638V62.5046H77.9396L77.8312 68.5746H76.7779Z" fill="white"/>
<path d="M84.2281 63.3451C84.6699 63.9253 84.9045 64.638 84.8941 65.3684C84.9044 66.1288 84.7061 66.8773 84.321 67.5318C84.0587 67.9057 83.707 68.2072 83.2983 68.4085C82.8895 68.6097 82.4369 68.7043 81.9822 68.6835C81.3198 68.7014 80.6762 68.4617 80.1855 68.0143C79.8585 67.6988 79.6045 67.3151 79.4412 66.8902C79.278 66.4653 79.2095 66.0096 79.2407 65.5552C79.2112 64.7645 79.4457 63.9866 79.9067 63.3451C80.1695 63.0209 80.5034 62.7623 80.8823 62.5895C81.2612 62.4167 81.6748 62.3344 82.0906 62.349C82.5006 62.3279 82.9096 62.4076 83.2821 62.5812C83.6545 62.7547 83.9792 63.017 84.2281 63.3451ZM80.6966 63.812C80.3882 64.3397 80.2326 64.9434 80.2474 65.5552C80.2367 66.0287 80.3375 66.498 80.5417 66.9248C80.6617 67.2389 80.8744 67.5086 81.1512 67.6977C81.4281 67.8869 81.7558 67.9865 82.0906 67.9832C82.4234 67.9781 82.7475 67.8751 83.0228 67.6871C83.298 67.499 83.5124 67.234 83.6395 66.9248C83.872 66.4402 83.9836 65.9061 83.9647 65.3684C83.9385 64.8026 83.7383 64.2588 83.3917 63.812C83.2476 63.6087 83.057 63.4432 82.836 63.3295C82.615 63.2157 82.3699 63.157 82.1216 63.1584C81.849 63.1422 81.5766 63.1933 81.3282 63.3072C81.0799 63.4212 80.863 63.5945 80.6966 63.812Z" fill="white"/>
<path d="M92.5301 68.6679L92.0344 65.2128C91.9415 64.5124 91.9105 64.0455 91.895 63.8431C91.7764 64.277 91.6315 64.7032 91.4613 65.1194L89.9125 68.5746H89.169L88.0073 65.0571C88.0073 64.8859 87.775 64.1233 87.7285 63.8743C87.6787 64.3608 87.6011 64.8441 87.4962 65.3217L86.7373 68.6679L85.8234 68.4812L87.3723 62.5513H88.1467L89.231 66.0843C89.3981 66.5952 89.5377 67.1147 89.6492 67.6407C89.7926 67.1096 89.9738 66.5895 90.1913 66.0843L91.7401 62.5046H92.5146L93.4129 68.4812L92.5301 68.6679Z" fill="white"/>
<path d="M98.6327 68.5746V65.4618L98.803 63.812L98.0596 65.0571L95.5504 68.6835L94.8534 68.4812L94.9618 62.5513H95.8757V65.6641L95.7517 67.5473L96.4797 66.3334L99.0354 62.5046L99.7014 62.7692L99.593 68.6991L98.6327 68.5746Z" fill="white"/>
<path d="M104.549 68.5746V65.7886C104.029 66.1166 103.429 66.2943 102.815 66.3022C102.554 66.3179 102.292 66.279 102.047 66.1879C101.802 66.0968 101.578 65.9555 101.39 65.7731C101.178 65.4623 101.075 65.0904 101.095 64.7147V62.5046H102.009V64.6213C101.994 64.84 102.049 65.0579 102.164 65.2439C102.266 65.3447 102.387 65.4232 102.52 65.4741C102.654 65.525 102.796 65.5473 102.939 65.5396C103.538 65.5296 104.118 65.3279 104.596 64.9637V62.5046H105.479L105.37 68.5746H104.549Z" fill="white"/>
<path d="M108.081 65.3685C108.071 65.9022 108.171 66.4322 108.375 66.9249C108.486 67.1988 108.677 67.4321 108.923 67.5935C109.17 67.7549 109.46 67.8366 109.754 67.8276C110.08 67.8147 110.398 67.724 110.683 67.563C110.937 67.3915 111.18 67.2044 111.411 67.0027L111.938 67.5475C111.655 67.8151 111.343 68.05 111.008 68.2479C110.596 68.525 110.11 68.6714 109.614 68.6681C109.273 68.6706 108.935 68.5981 108.625 68.4556C108.315 68.3131 108.039 68.1041 107.818 67.8432C107.324 67.2041 107.072 66.4102 107.105 65.602C107.067 64.6594 107.395 63.7387 108.019 63.034C108.254 62.7909 108.536 62.598 108.848 62.467C109.159 62.336 109.493 62.2694 109.831 62.2713C110.155 62.2558 110.479 62.3199 110.773 62.4583C111.067 62.5966 111.323 62.8049 111.519 63.0651C111.896 63.6642 112.079 64.3652 112.046 65.0728V65.3685H108.081ZM111.07 64.6682C111.067 64.2826 110.971 63.9036 110.791 63.5631C110.688 63.3963 110.545 63.2587 110.374 63.1633C110.203 63.068 110.011 63.0181 109.816 63.0184C109.627 63.017 109.44 63.0551 109.267 63.1301C109.093 63.2051 108.937 63.3155 108.809 63.4542C108.504 63.8049 108.282 64.2197 108.158 64.6682H111.07Z" fill="white"/>
<path d="M117.204 63.8121C117.068 63.5995 116.883 63.4232 116.664 63.2984C116.446 63.1737 116.2 63.1043 115.949 63.0962C115.713 63.0968 115.479 63.1518 115.267 63.257C115.055 63.3622 114.87 63.5149 114.726 63.7032C114.297 64.2216 114.076 64.882 114.106 65.5553C114.091 66.0042 114.175 66.4508 114.354 66.8627C114.464 67.1819 114.675 67.4563 114.955 67.6445C115.234 67.8326 115.567 67.9242 115.903 67.9055C116.181 67.9088 116.453 67.8215 116.677 67.6564C116.901 67.5141 117.1 67.3353 117.266 67.1273L117.777 67.6876C117.578 67.9093 117.354 68.1077 117.111 68.279C116.712 68.5609 116.236 68.713 115.748 68.7148C115.419 68.7174 115.094 68.6509 114.792 68.5196C114.491 68.3882 114.22 68.1949 113.998 67.9521C113.397 67.3193 113.063 66.4768 113.068 65.602C113.056 65.134 113.138 64.6684 113.308 64.2327C113.478 63.7969 113.734 63.3999 114.06 63.0651C114.291 62.8094 114.573 62.6053 114.888 62.4659C115.203 62.3265 115.543 62.2549 115.887 62.2558C116.284 62.2461 116.676 62.3485 117.018 62.5515C117.326 62.7426 117.59 62.9972 117.792 63.2985L117.204 63.8121Z" fill="white"/>
<path d="M119.992 62.5046L119.883 68.5746H118.923L119.031 62.5046H119.992ZM123.492 62.956L121.045 65.3684L123.678 68.1855L122.904 68.7769L119.976 65.3684L122.888 62.2556L123.492 62.956Z" fill="white"/>
<path d="M125.769 62.6914C126.205 62.4669 126.688 62.3495 127.179 62.349C127.403 62.3304 127.629 62.3611 127.84 62.4391C128.051 62.517 128.243 62.6403 128.402 62.8004C128.679 63.1816 128.801 63.6548 128.743 64.1233V67.0026C128.743 67.4229 128.743 67.9209 129.115 67.9209C129.288 67.898 129.45 67.8219 129.579 67.703L129.812 68.1855C129.536 68.4435 129.181 68.5975 128.805 68.6213C128.675 68.6229 128.546 68.5975 128.426 68.5466C128.306 68.4957 128.198 68.4205 128.108 68.3256C127.972 68.1293 127.902 67.8951 127.907 67.6563C127.721 67.8945 127.502 68.1042 127.256 68.2789C126.924 68.5406 126.516 68.6879 126.094 68.6991C125.856 68.6993 125.621 68.6479 125.405 68.5486C125.188 68.4492 124.995 68.3041 124.84 68.1232C124.552 67.7916 124.398 67.3645 124.406 66.9248C124.42 66.5434 124.551 66.1757 124.782 65.872C125.012 65.5684 125.33 65.3436 125.692 65.2284C126.402 64.9442 127.158 64.7913 127.922 64.777V64.4346C127.96 64.0666 127.867 63.6969 127.659 63.3918C127.57 63.3025 127.463 63.2339 127.346 63.1908C127.228 63.1478 127.102 63.1314 126.977 63.1428C126.645 63.148 126.32 63.2392 126.032 63.4074C125.769 63.5554 125.521 63.7273 125.289 63.921L124.84 63.2984C125.139 63.0802 125.449 62.8776 125.769 62.6914ZM127.845 65.3684C127.286 65.4074 126.738 65.5334 126.218 65.742C125.965 65.817 125.743 65.9702 125.581 66.1797C125.42 66.3893 125.329 66.6445 125.32 66.9093C125.319 67.0581 125.349 67.2055 125.407 67.3421C125.466 67.4788 125.552 67.6017 125.661 67.703C125.835 67.8613 126.061 67.9499 126.296 67.952C126.584 67.9313 126.86 67.8227 127.086 67.6408L127.767 67.1272L127.845 65.3684Z" fill="white"/>
<path d="M134.164 68.5746V66.0999C133.814 66.0633 133.461 66.1396 133.157 66.3178C132.944 66.4587 132.765 66.6446 132.631 66.8625L131.237 68.7613L130.462 68.2322L131.794 66.5201C131.894 66.3712 132.022 66.2436 132.17 66.1448C132.319 66.0459 132.486 65.9778 132.662 65.9443C132.23 65.9491 131.809 65.8064 131.469 65.5396C131.307 65.3923 131.177 65.2122 131.089 65.011C131.001 64.8098 130.956 64.5921 130.958 64.3723C130.954 64.0954 131.014 63.8213 131.136 63.5725C131.257 63.3236 131.435 63.1071 131.655 62.9404C132.079 62.6538 132.584 62.512 133.095 62.5358H135.186L135.078 68.6057L134.164 68.5746ZM134.257 63.2984H133.111C132.949 63.2889 132.787 63.3131 132.635 63.3693C132.484 63.4256 132.345 63.5127 132.228 63.6252C132.05 63.8322 131.956 64.0989 131.965 64.3723C131.958 64.5 131.98 64.6276 132.028 64.7459C132.076 64.8643 132.15 64.9705 132.243 65.0571C132.49 65.2513 132.798 65.3506 133.111 65.3373H134.226L134.257 63.2984Z" fill="white"/>
<path d="M57.3085 47.5634C57.9251 47.5532 58.5284 47.7444 59.0278 48.1081C59.2824 48.3347 59.4829 48.6162 59.6143 48.9314C59.7457 49.2467 59.8047 49.5877 59.7867 49.9291C59.8182 50.4866 59.6537 51.0375 59.322 51.4855C59.0119 51.8323 58.6282 52.1046 58.1993 52.2824C57.7703 52.4602 57.3071 52.5389 56.8438 52.5127H55.6512V56.0301H54.6289L54.7838 47.6101L57.3085 47.5634ZM55.6357 51.6722H56.596C57.1457 51.6994 57.6892 51.5465 58.1449 51.2365C58.3374 51.0803 58.4898 50.8802 58.5895 50.6527C58.6892 50.4253 58.7333 50.1772 58.718 49.9291C58.7268 49.6977 58.684 49.4672 58.5929 49.2545C58.5018 49.0418 58.3646 48.8522 58.1914 48.6995C57.7874 48.4354 57.3092 48.3098 56.8283 48.3416H55.7596L55.6357 51.6722Z" fill="white"/>
<path d="M65.1304 50.7539C65.5701 51.3521 65.799 52.0805 65.7809 52.8239C65.7987 53.5852 65.5999 54.3357 65.2078 54.9873C64.949 55.361 64.6002 55.6626 64.1939 55.8641C63.7876 56.0655 63.3371 56.1601 62.8845 56.139C62.2176 56.1561 61.5694 55.9168 61.0723 55.4698C60.7523 55.1498 60.5039 54.765 60.3437 54.341C60.1834 53.9169 60.115 53.4634 60.143 53.0107C60.1062 52.219 60.3413 51.4388 60.809 50.8006C61.0702 50.4746 61.4038 50.2146 61.7831 50.0416C62.1624 49.8687 62.5767 49.7874 62.9929 49.8045C63.3985 49.7819 63.8036 49.8561 64.1752 50.0211C64.5467 50.1861 64.874 50.4373 65.1304 50.7539ZM61.5834 51.3609C61.275 51.8886 61.1194 52.4923 61.1342 53.1041C61.1211 53.5594 61.2111 54.0118 61.3976 54.427C61.5176 54.7411 61.7302 55.0107 62.0071 55.1999C62.2839 55.3891 62.6117 55.4887 62.9464 55.4854C63.2754 55.481 63.5961 55.3819 63.8707 55.1998C64.1452 55.0177 64.362 54.7603 64.4953 54.4581C64.7152 53.9698 64.8212 53.4375 64.8051 52.9017C64.8412 52.3004 64.6658 51.7054 64.3095 51.2208C64.1671 51.0147 63.9773 50.8461 63.7561 50.7296C63.535 50.6131 63.2891 50.552 63.0394 50.5516C62.7475 50.5471 62.4596 50.6195 62.2042 50.7615C61.9487 50.9034 61.7347 51.1101 61.5834 51.3609Z" fill="white"/>
<path d="M70.9077 51.2209C70.7736 51.0103 70.5909 50.8353 70.3752 50.7107C70.1596 50.5861 69.9172 50.5155 69.6686 50.505C69.4294 50.5031 69.1931 50.557 68.9781 50.6623C68.7632 50.7676 68.5754 50.9215 68.4295 51.112C68.0008 51.6303 67.7799 52.2907 67.8099 52.9641C67.7947 53.4129 67.8794 53.8596 68.0578 54.2714C68.1682 54.5907 68.3791 54.8651 68.6586 55.0532C68.938 55.2413 69.2708 55.333 69.6066 55.3142C69.8848 55.3176 70.1565 55.2302 70.3811 55.0652C70.6067 54.9189 70.8102 54.7407 70.9851 54.536L71.4963 55.0963C71.2917 55.3183 71.0632 55.5167 70.8148 55.6877C70.4173 55.9752 69.9414 56.1328 69.4518 56.1391C69.1221 56.1398 68.7959 56.0708 68.4944 55.9368C68.1929 55.8027 67.9228 55.6065 67.7015 55.3609C67.1287 54.7159 66.8238 53.8748 66.8496 53.0108C66.8377 52.5428 66.9193 52.0772 67.0896 51.6414C67.2598 51.2057 67.5153 50.8087 67.8409 50.4738C68.3156 50.0307 68.9434 49.7907 69.5912 49.8046C69.9882 49.7949 70.3799 49.8974 70.7218 50.1003C71.0297 50.2914 71.2937 50.5461 71.4963 50.8474L70.9077 51.2209Z" fill="white"/>
<path d="M76.2823 51.2209C76.1467 51.0083 75.9616 50.8319 75.743 50.7072C75.5244 50.5825 75.2789 50.5131 75.0277 50.505C74.7911 50.5056 74.5579 50.5606 74.3458 50.6658C74.1337 50.771 73.9484 50.9236 73.8041 51.112C73.3742 51.6122 73.1475 52.2568 73.169 52.9174C73.1615 53.3657 73.2459 53.8107 73.4169 54.2248C73.5393 54.5359 73.7531 54.8023 74.0297 54.9885C74.3063 55.1748 74.6328 55.2721 74.9657 55.2676C75.2439 55.2709 75.5156 55.1836 75.7402 55.0185C75.9719 54.8805 76.1766 54.7012 76.3442 54.4894L76.8554 55.0497C76.6527 55.2677 76.4297 55.4658 76.1894 55.6411C75.7871 55.9307 75.3057 56.0883 74.8108 56.0924C74.4811 56.0931 74.155 56.0242 73.8535 55.8901C73.552 55.7561 73.2819 55.5599 73.0606 55.3143C72.4878 54.6693 72.1829 53.8282 72.2087 52.9641C72.1968 52.4961 72.2784 52.0305 72.4487 51.5948C72.6189 51.159 72.8744 50.762 73.2 50.4272C73.6819 50.001 74.3088 49.778 74.9502 49.8046C75.3521 49.7953 75.7487 49.8976 76.0964 50.1003C76.3945 50.2985 76.6521 50.552 76.8554 50.8474L76.2823 51.2209Z" fill="white"/>
<path d="M81.6724 56.03V52.9172L81.7808 51.2363L81.0529 52.4814L78.5437 56.1078L77.8467 55.8432L77.9551 49.9134H78.9929V53.0262L78.8689 54.9094L79.5969 53.6954L82.0906 49.8044L82.7411 50.069L82.5708 56.03H81.6724Z" fill="white"/>
<path d="M88.2861 56.0302V52.9174L88.4101 51.2365L87.6666 52.4816L85.1884 56.108L84.4759 55.8434L84.5843 49.9136H85.4982V53.0264L85.3742 54.9096L86.1022 53.6956L88.6579 49.8046L89.3084 50.0692L89.2155 56.0302H88.2861ZM86.9851 49.1354C86.6127 49.1405 86.2437 49.0637 85.9039 48.9105C85.5641 48.7572 85.2617 48.5312 85.018 48.2482L85.5291 47.7969C85.7336 47.9983 85.9758 48.157 86.2416 48.2638C86.5075 48.3707 86.7917 48.4236 87.078 48.4194C87.6503 48.4117 88.2005 48.1961 88.6269 47.8124L89.0761 48.2638C88.814 48.5492 88.4914 48.7715 88.132 48.9143C87.7727 49.0572 87.386 49.1167 87.0006 49.0887L86.9851 49.1354Z" fill="white"/>
<path d="M94.9153 51.2208C94.7797 51.0209 94.5995 50.8555 94.3891 50.7378C94.1787 50.6201 93.9439 50.5533 93.7034 50.5427C93.4628 50.5322 93.2231 50.5781 93.0033 50.6769C92.7835 50.7757 92.5896 50.9246 92.4371 51.1118C92.0137 51.6158 91.7879 52.2578 91.8021 52.9172C91.7918 53.3673 91.8817 53.814 92.0654 54.2246C92.1759 54.5438 92.3868 54.8183 92.6662 55.0064C92.9456 55.1945 93.2784 55.2861 93.6143 55.2674C93.8921 55.2686 94.1632 55.1814 94.3887 55.0184C94.603 54.8687 94.7913 54.6846 94.9463 54.4736L95.4574 55.0339C95.2583 55.2556 95.0349 55.454 94.7914 55.6254C94.394 55.9128 93.9181 56.0704 93.4284 56.0767C93.0986 56.0784 92.7721 56.0099 92.4704 55.8758C92.1688 55.7416 91.8988 55.5449 91.6782 55.2985C91.0983 54.6578 90.7923 53.8137 90.8263 52.9484C90.8149 52.4818 90.8953 52.0176 91.0627 51.5822C91.2301 51.1469 91.4814 50.7491 91.8021 50.4114C92.2981 49.9794 92.9437 49.7613 93.5988 49.8045C93.9958 49.7948 94.3875 49.8972 94.7295 50.1002C95.0348 50.2891 95.2941 50.5444 95.4884 50.8472L94.9153 51.2208Z" fill="white"/>
<path d="M97.6879 49.9134L97.5794 56.03H96.6191L96.7276 49.9601L97.6879 49.9134ZM101.204 50.3647L98.7411 52.7772L101.39 55.5942L100.615 56.1857L97.6879 52.8238L100.677 49.8044L101.204 50.3647Z" fill="white"/>
<path d="M103.481 50.1002C103.916 49.8722 104.4 49.7546 104.89 49.7578C105.112 49.7415 105.335 49.7733 105.543 49.8512C105.752 49.9291 105.941 50.0512 106.098 50.2092C106.385 50.586 106.513 51.0612 106.455 51.5321V54.4114C106.455 54.8317 106.455 55.3297 106.826 55.3297C107 55.3068 107.162 55.2307 107.291 55.1118L107.523 55.5943C107.248 55.8523 106.892 56.0063 106.516 56.0301C106.386 56.0317 106.257 56.0063 106.137 55.9554C106.017 55.9045 105.909 55.8293 105.819 55.7344C105.678 55.5412 105.607 55.3048 105.618 55.0651C105.433 55.3033 105.213 55.513 104.968 55.6877C104.635 55.9494 104.228 56.0967 103.806 56.1079C103.568 56.1081 103.333 56.0567 103.116 55.9574C102.9 55.858 102.707 55.7129 102.551 55.532C102.264 55.2004 102.109 54.7733 102.118 54.3336C102.127 53.951 102.257 53.5811 102.487 53.2765C102.718 52.972 103.039 52.7483 103.403 52.6372C104.114 52.353 104.869 52.2001 105.634 52.1858V51.8434C105.664 51.476 105.572 51.1089 105.37 50.8006C105.281 50.7121 105.174 50.6441 105.057 50.6011C104.939 50.5581 104.814 50.5412 104.689 50.5516C104.356 50.5568 104.031 50.648 103.744 50.8162C103.479 50.9604 103.23 51.1326 103.001 51.3298L102.567 50.7228C102.853 50.4897 103.159 50.2814 103.481 50.1002ZM105.541 52.7461C105.009 52.7959 104.488 52.9217 103.992 53.1196C103.742 53.1974 103.522 53.3518 103.364 53.5611C103.206 53.7704 103.117 54.0242 103.109 54.2869C103.108 54.4357 103.138 54.5831 103.196 54.7198C103.255 54.8564 103.341 54.9793 103.45 55.0807C103.624 55.2389 103.85 55.3275 104.085 55.3297C104.373 55.309 104.649 55.2004 104.875 55.0184L105.479 54.4737L105.541 52.7461Z" fill="white"/>
<path d="M111.876 56.0301V53.5555C111.526 53.5188 111.173 53.5951 110.869 53.7734C110.656 53.9142 110.476 54.1001 110.342 54.3181L108.948 56.2169L108.174 55.6877L109.506 53.9757C109.605 53.8268 109.733 53.6992 109.882 53.6003C110.031 53.5015 110.198 53.4333 110.373 53.3998C109.941 53.4046 109.521 53.2619 109.181 52.9952C109.018 52.8479 108.889 52.6677 108.801 52.4665C108.712 52.2653 108.668 52.0477 108.669 51.8279C108.665 51.5509 108.726 51.2768 108.847 51.028C108.968 50.7792 109.146 50.5626 109.366 50.396C109.796 50.1072 110.306 49.9653 110.822 49.9913H112.898L112.789 56.0301H111.876ZM111.969 50.7695H110.822C110.662 50.758 110.501 50.7797 110.349 50.8332C110.197 50.8868 110.058 50.971 109.94 51.0808C109.762 51.2878 109.668 51.5545 109.676 51.8279C109.674 51.9551 109.697 52.0814 109.745 52.1992C109.793 52.317 109.865 52.4236 109.955 52.5127C110.202 52.7068 110.509 52.8061 110.822 52.7928H111.938L111.969 50.7695Z" fill="white"/>
</g>
<defs>
<clipPath id="clip0_271_784">
<rect width="135" height="92" fill="white"/>
</clipPath>
</defs>
</svg>
