<svg width="20" height="20" viewBox="0 0 20 20" fill="none" xmlns="http://www.w3.org/2000/svg">
<path d="M14.5862 0H5.41381C2.42858 0 0 2.42858 0 5.41381V14.5863C0 17.5714 2.42858 20 5.41381 20H14.5863C17.5714 20 20 17.5714 20 14.5863V5.41381C20 2.42858 17.5714 0 14.5862 0V0ZM9.99998 15.4686C6.98454 15.4686 4.53139 13.0154 4.53139 9.99998C4.53139 6.98454 6.98454 4.53139 9.99998 4.53139C13.0154 4.53139 15.4686 6.98454 15.4686 9.99998C15.4686 13.0154 13.0154 15.4686 9.99998 15.4686ZM15.5993 5.82106C14.7082 5.82106 13.9834 5.09627 13.9834 4.20516C13.9834 3.31405 14.7082 2.58911 15.5993 2.58911C16.4904 2.58911 17.2154 3.31405 17.2154 4.20516C17.2154 5.09627 16.4904 5.82106 15.5993 5.82106Z" fill="url(#paint0_linear_389_3994)"/>
<path d="M15.5997 3.76175C15.3552 3.76175 15.1562 3.96072 15.1562 4.20517C15.1562 4.44961 15.3552 4.64859 15.5997 4.64859C15.8443 4.64859 16.0432 4.44977 16.0432 4.20517C16.0432 3.96057 15.8443 3.76175 15.5997 3.76175Z" fill="#E04084"/>
<defs>
<linearGradient id="paint0_linear_389_3994" x1="44.5" y1="-19" x2="-16.5" y2="37.5" gradientUnits="userSpaceOnUse">
<stop stop-color="#FBAD50"/>
<stop offset="0.387323" stop-color="#FCCC63"/>
<stop offset="0.704467" stop-color="#BC2A8D"/>
<stop offset="1" stop-color="#8A3AB9"/>
</linearGradient>
</defs>
</svg>
