<svg width="160" height="24" viewBox="0 0 160 24" fill="none" xmlns="http://www.w3.org/2000/svg">
<g clip-path="url(#clip0_603_89)">
<path d="M10.7939 23.6981C9.8002 23.721 8.81682 23.4927 7.93486 23.0344C7.12865 22.602 6.4628 21.9482 6.01574 21.15C5.53998 20.2878 5.29982 19.3154 5.31945 18.3308V5.09605H0V1.68921H9.09866V18.3308C9.07851 18.5939 9.11559 18.8582 9.20734 19.1055C9.29908 19.3529 9.44332 19.5775 9.63014 19.7638C9.81695 19.9501 10.0419 20.0937 10.2895 20.1847C10.5371 20.2758 10.8015 20.3121 11.0645 20.2913H16.0838V23.6981H10.7939Z" fill="#0D1238"/>
<path d="M22.9544 24C21.2395 24 19.8887 23.5477 18.9021 22.6431C18.4065 22.1779 18.0175 21.6109 17.7618 20.9811C17.5062 20.3513 17.3899 19.6736 17.4209 18.9946C17.3807 18.2826 17.5074 17.571 17.7911 16.9166C18.0748 16.2623 18.5075 15.6833 19.0547 15.2259C20.1422 14.3414 21.684 13.8993 23.6802 13.8997H27.8211V12.4827C27.8401 12.1299 27.7793 11.7773 27.6435 11.4511C27.5076 11.1249 27.3001 10.8335 27.0363 10.5984C26.4272 10.1174 25.6631 9.87608 24.8883 9.91995C24.1647 9.89175 23.4493 10.0806 22.8338 10.4622C22.5754 10.624 22.355 10.8398 22.1877 11.0948C22.0204 11.3497 21.9101 11.6378 21.8645 11.9393H18.1763C18.2451 11.2021 18.4692 10.4879 18.8339 9.84362C19.1986 9.19933 19.6956 8.63958 20.2922 8.2012C21.6687 7.23178 23.3267 6.74402 25.0089 6.81368C27.0461 6.81368 28.6536 7.32157 29.8313 8.33737C30.4173 8.84546 30.8809 9.4795 31.1872 10.1921C31.4936 10.9046 31.6348 11.6772 31.6003 12.4521V23.6982H27.9417V20.8042H27.3389L27.9417 19.9896C27.9625 20.55 27.85 21.1073 27.6135 21.6158C27.377 22.1242 27.0231 22.5692 26.5811 22.9143C25.5332 23.6829 24.2522 24.0664 22.9544 24ZM24.1945 21.1661C25.1344 21.2065 26.0591 20.9185 26.8099 20.3515C27.1326 20.1041 27.3924 19.7841 27.5681 19.4175C27.7438 19.0508 27.8305 18.6479 27.8211 18.2414V16.2208H23.7393C23.0613 16.189 22.3984 16.4277 21.8964 16.8845C21.6636 17.1103 21.4812 17.3828 21.3612 17.6841C21.2412 17.9854 21.1863 18.3087 21.2001 18.6327C21.1841 18.9825 21.248 19.3314 21.387 19.6528C21.526 19.9742 21.7364 20.2597 22.0022 20.4877C22.6278 20.9697 23.406 21.2105 24.1945 21.1661Z" fill="#0D1238"/>
<path d="M42.4382 23.9999C41.8444 24.0308 41.2503 23.9442 40.6901 23.745C40.1298 23.5459 39.6143 23.2381 39.1732 22.8393C38.7606 22.423 38.4397 21.9248 38.2313 21.3769C38.0228 20.829 37.9313 20.2436 37.9627 19.6582L38.8091 20.5329H37.9627V23.6981H34.2745V1.68921H38.0537V6.33145L37.9332 10.2818H38.8091L37.9627 11.1552C37.9314 10.5701 38.0229 9.98484 38.2314 9.43718C38.4399 8.88952 38.7607 8.39157 39.1732 7.97537C39.6141 7.57619 40.1295 7.26806 40.6898 7.06868C41.2501 6.8693 41.8443 6.78261 42.4382 6.81358C43.1939 6.78314 43.947 6.92162 44.6425 7.21895C45.3379 7.51628 45.9583 7.96496 46.4585 8.53233C47.4673 9.67817 47.9717 11.226 47.9717 13.1758V17.6684C47.9717 19.5981 47.4673 21.1357 46.4585 22.2811C45.9583 22.8485 45.3379 23.2972 44.6425 23.5945C43.947 23.8918 43.194 24.0303 42.4382 23.9999ZM41.1071 20.744C41.5232 20.7678 41.9396 20.7051 42.3301 20.5596C42.7206 20.414 43.0767 20.189 43.3756 19.8987C43.9566 19.2347 44.2504 18.3672 44.1925 17.4868V13.3267C44.2502 12.4463 43.9565 11.5789 43.3756 10.9148C43.0766 10.6247 42.7205 10.3998 42.33 10.2545C41.9395 10.1092 41.5231 10.0467 41.1071 10.0708C40.6949 10.0486 40.2827 10.1136 39.8973 10.2616C39.5119 10.4096 39.1621 10.6372 38.8706 10.9295C38.2945 11.5905 38.0011 12.4514 38.0537 13.3267V17.4868C38.0011 18.3621 38.2945 19.223 38.8706 19.884C39.162 20.1765 39.5118 20.4043 39.8972 20.5525C40.2825 20.7007 40.6948 20.7659 41.1071 20.744H41.1071Z" fill="#0D1238"/>
<path d="M60.4705 23.6981V19.3258H50.646V13.8689L59.1418 1.68921H63.3738L54.2726 14.8639V16.0097H60.4705V11.035H64.2497V23.6981H60.4705Z" fill="#E2463C"/>
<path d="M66.9238 23.6982V7.1155H70.0067V9.34706H70.6415L70.1298 9.88931C70.0908 9.072 70.3724 8.27175 70.9146 7.65898C71.1719 7.38117 71.4858 7.16192 71.8352 7.01608C72.1845 6.87024 72.5612 6.80122 72.9396 6.81371C73.3493 6.79984 73.7557 6.89261 74.1188 7.08293C74.482 7.27324 74.7895 7.55459 75.0112 7.89943C75.5469 8.77754 75.805 9.79691 75.7518 10.8241L75.0875 9.34706H76.116L75.7223 9.88931C75.6833 9.072 75.9649 8.27175 76.5072 7.65898C76.7743 7.37714 77.0988 7.15586 77.4587 7.01005C77.8186 6.86424 78.2056 6.79729 78.5936 6.81371C79.0634 6.79636 79.5305 6.89126 79.9563 7.09053C80.382 7.28981 80.7541 7.58771 81.0417 7.95955C81.6896 8.8612 82.0099 9.95717 81.9496 11.0658V23.6982H78.6231V11.2167C78.649 10.761 78.5217 10.3097 78.2614 9.9347C78.1353 9.77786 77.9734 9.65356 77.7893 9.57223C77.6053 9.4909 77.4043 9.45491 77.2035 9.46729C77.0065 9.45764 76.81 9.49346 76.6291 9.57196C76.4482 9.65046 76.2877 9.76954 76.1602 9.91998C75.8845 10.2938 75.7503 10.7533 75.7813 11.2167V23.6982H73.0601V11.2167C73.0903 10.7559 72.9627 10.2986 72.6984 9.91998C72.5699 9.76692 72.4072 9.64621 72.2234 9.56758C72.0396 9.48895 71.8399 9.45459 71.6405 9.46729C71.443 9.45328 71.245 9.48711 71.0634 9.56592C70.8818 9.64473 70.7219 9.76618 70.5972 9.91998C70.3426 10.3025 70.2207 10.7581 70.2503 11.2167V23.6982H66.9238Z" fill="#0D1238"/>
<path d="M91.5771 23.9692C90.3064 24.0003 89.0468 23.7265 87.9037 23.1706C86.8961 22.6663 86.0561 21.881 85.4851 20.9096C84.8917 19.8577 84.5942 18.6647 84.624 17.4574V13.3561C84.5942 12.1488 84.8917 10.9558 85.4851 9.9039C86.0568 8.93305 86.8966 8.14793 87.9037 7.6429C89.0599 7.11658 90.3154 6.84424 91.5858 6.84424C92.8561 6.84424 94.1116 7.11658 95.2678 7.6429C96.268 8.15133 97.1015 8.93604 97.6691 9.9039C98.2621 10.9454 98.5606 12.1286 98.5328 13.3267V17.4573C98.563 18.6651 98.2645 19.8583 97.6691 20.9096C97.1022 21.878 96.2686 22.6629 95.2678 23.1706C94.1197 23.7299 92.8537 24.0038 91.5771 23.9692ZM91.5771 20.6826C92.0036 20.7091 92.4309 20.6495 92.8338 20.5072C93.2367 20.3649 93.6067 20.143 93.9219 19.8545C94.2145 19.5313 94.4389 19.1525 94.5818 18.7406C94.7247 18.3288 94.7831 17.8923 94.7535 17.4574V13.3561C94.7857 12.9187 94.7285 12.4794 94.5855 12.0647C94.4426 11.6501 94.2168 11.2689 93.9219 10.9442C93.2572 10.4175 92.4339 10.1308 91.5858 10.1308C90.7376 10.1308 89.9143 10.4175 89.2496 10.9442C88.9504 11.2666 88.7209 11.6471 88.5752 12.062C88.4296 12.477 88.3711 12.9175 88.4032 13.3561V17.4573C88.3546 17.8882 88.4029 18.3245 88.5445 18.7344C88.6861 19.1443 88.9174 19.5173 89.2215 19.8264C89.5257 20.1355 89.895 20.3727 90.3025 20.5209C90.7101 20.669 91.1455 20.7242 91.5772 20.6826L91.5771 20.6826Z" fill="#0D1238"/>
<path d="M109.391 23.9999C108.798 24.0308 108.203 23.9442 107.643 23.745C107.083 23.5459 106.567 23.2381 106.126 22.8393C105.714 22.423 105.393 21.9248 105.184 21.3769C104.976 20.8291 104.884 20.2436 104.916 19.6582L105.762 20.5329H104.916V23.6981H101.228V1.68921H105.007V6.33145L104.886 10.2818H105.762L104.916 11.1552C104.885 10.5701 104.976 9.98484 105.185 9.43718C105.393 8.88952 105.714 8.39157 106.126 7.97537C106.567 7.57619 107.083 7.26806 107.643 7.06868C108.203 6.8693 108.797 6.78261 109.391 6.81358C110.147 6.78314 110.9 6.92162 111.596 7.21895C112.291 7.51628 112.912 7.96496 113.412 8.53233C114.42 9.67817 114.925 11.226 114.925 13.1758V17.6684C114.925 19.5981 114.42 21.1357 113.412 22.2811C112.912 22.8485 112.291 23.2972 111.596 23.5945C110.9 23.8919 110.147 24.0303 109.391 23.9999ZM108.06 20.744C108.476 20.7678 108.893 20.705 109.283 20.5595C109.674 20.414 110.03 20.189 110.329 19.8987C110.91 19.2347 111.204 18.3672 111.146 17.4868V13.3267C111.203 12.4463 110.91 11.5789 110.329 10.9148C110.03 10.6247 109.674 10.3998 109.283 10.2545C108.893 10.1092 108.476 10.0467 108.06 10.0708C107.648 10.0486 107.236 10.1136 106.85 10.2616C106.465 10.4096 106.115 10.6372 105.824 10.9295C105.248 11.5905 104.954 12.4514 105.007 13.3267V17.4868C104.954 18.3621 105.248 19.223 105.824 19.884C106.115 20.1765 106.465 20.4043 106.85 20.5525C107.236 20.7007 107.648 20.7659 108.06 20.744H108.06Z" fill="#0D1238"/>
<path d="M117.599 23.6982V20.2607H122.648V10.5223H117.599V7.11548H126.277V20.2607H131.417V23.6982H117.599ZM124.161 4.34167C123.504 4.37851 122.856 4.16899 122.345 3.75404C122.124 3.55569 121.95 3.3109 121.835 3.03726C121.721 2.76363 121.668 2.46794 121.681 2.17146C121.668 1.87478 121.72 1.57887 121.835 1.30502C121.95 1.03116 122.124 0.786165 122.345 0.587645C122.873 0.205648 123.508 0 124.16 0C124.811 0 125.446 0.205648 125.974 0.587645C126.195 0.786164 126.369 1.03116 126.484 1.30501C126.599 1.57887 126.652 1.87477 126.639 2.17145C126.652 2.46793 126.599 2.76362 126.484 3.03725C126.369 3.31089 126.195 3.55568 125.974 3.75403C125.464 4.1686 124.817 4.37812 124.161 4.34167Z" fill="#0D1238"/>
<path d="M139.464 23.6981C138.47 23.721 137.487 23.4927 136.605 23.0344C135.799 22.602 135.133 21.9482 134.686 21.15C134.21 20.2878 133.97 19.3154 133.99 18.3308V5.09605H128.67V1.68921H137.769V18.3308C137.749 18.5939 137.786 18.8582 137.878 19.1055C137.969 19.3529 138.114 19.5775 138.3 19.7638C138.487 19.9501 138.712 20.0937 138.96 20.1847C139.207 20.2758 139.472 20.3121 139.735 20.2913H144.754V23.6981H139.464Z" fill="#0D1238"/>
<path d="M153.076 24.0001C151.799 24.0309 150.534 23.7514 149.388 23.1855C148.375 22.676 147.529 21.8861 146.952 20.9097C146.361 19.8676 146.064 18.6847 146.091 17.4869V13.3269C146.064 12.1291 146.361 10.9462 146.952 9.90406C147.53 8.92798 148.375 8.13813 149.388 7.62834C150.534 7.063 151.799 6.7835 153.076 6.81374C154.338 6.78495 155.588 7.06457 156.718 7.62834C157.724 8.14081 158.564 8.93042 159.136 9.90406C159.729 10.9456 160.028 12.1287 160 13.3269V16.3117H149.75V17.4869C149.75 18.6536 150.032 19.5333 150.596 20.1258C150.93 20.44 151.325 20.6813 151.758 20.8344C152.19 20.9876 152.649 21.0491 153.106 21.0152C153.817 21.0452 154.525 20.8945 155.163 20.5773C155.411 20.4472 155.628 20.2656 155.8 20.0447C155.971 19.8238 156.094 19.5687 156.159 19.2965H159.877C159.746 19.9908 159.477 20.6516 159.085 21.2395C158.693 21.8274 158.187 22.3302 157.596 22.7181C156.258 23.6015 154.679 24.0493 153.076 24.0001ZM156.341 14.2016V13.2962C156.405 12.3462 156.114 11.4065 155.524 10.6586C155.208 10.3362 154.825 10.0869 154.402 9.92798C153.979 9.76906 153.527 9.70438 153.076 9.73846C152.62 9.70657 152.162 9.77359 151.734 9.93493C151.306 10.0963 150.918 10.3481 150.596 10.6733C149.99 11.4198 149.688 12.3674 149.75 13.3269V13.9599L156.612 13.8998L156.341 14.2016Z" fill="#0D1238"/>
</g>
<defs>
<clipPath id="clip0_603_89">
<rect width="160" height="24" fill="white"/>
</clipPath>
</defs>
</svg>
