<svg width="51" height="41" viewBox="0 0 51 41" fill="none" xmlns="http://www.w3.org/2000/svg">
<path d="M0 41V27.5231C0 22.3349 0.824627 17.5262 2.47388 13.0972C4.25 8.66821 7.23134 4.30247 11.4179 0L18.8396 5.50463C16.0485 8.54166 14.0187 11.3889 12.75 14.0463C11.4813 16.5772 10.7201 19.108 10.4664 21.6389H19.4104V41H0ZM31.5896 41V27.5231C31.5896 22.3349 32.4142 17.5262 34.0634 13.0972C35.8396 8.66821 38.8209 4.30247 43.0075 0L50.4291 5.50463C47.6381 8.54166 45.6082 11.3889 44.3396 14.0463C43.0709 16.5772 42.3097 19.108 42.056 21.6389H51V41H31.5896Z" fill="#E2463C"/>
</svg>
