<svg width="45" height="36" viewBox="0 0 45 36" fill="none" xmlns="http://www.w3.org/2000/svg">
<path d="M45 3.8147e-06L45 11.8333C45 16.3889 44.2724 20.6111 42.8172 24.5C41.25 28.3889 38.6194 32.2222 34.9254 36L28.3769 31.1667C30.8396 28.5 32.6306 26 33.75 23.6667C34.8694 21.4444 35.541 19.2222 35.7649 17L27.8731 17L27.8731 2.31742e-06L45 3.8147e-06ZM17.1269 1.37795e-06L17.1269 11.8333C17.1269 16.3889 16.3993 20.6111 14.944 24.5C13.3769 28.3889 10.7463 32.2222 7.05224 36L0.503727 31.1667C2.96641 28.5 4.75746 26 5.87687 23.6667C6.99627 21.4444 7.66791 19.2222 7.89179 17L-2.15366e-06 17L-6.67478e-07 -1.19328e-07L17.1269 1.37795e-06Z" fill="#DAE0E6"/>
</svg>
