<svg width="22" height="22" viewBox="0 0 22 22" fill="none" xmlns="http://www.w3.org/2000/svg">
<g clip-path="url(#clip0_338_1538)">
<path d="M10.0833 20.1667C4.52375 20.1667 0 15.6429 0 10.0833C0 4.52375 4.52375 0 10.0833 0C15.6429 0 20.1667 4.52375 20.1667 10.0833C20.1667 15.6429 15.6429 20.1667 10.0833 20.1667ZM10.0833 1.83333C5.53483 1.83333 1.83333 5.53392 1.83333 10.0833C1.83333 14.6328 5.53483 18.3333 10.0833 18.3333C14.6318 18.3333 18.3333 14.6328 18.3333 10.0833C18.3333 5.53392 14.6318 1.83333 10.0833 1.83333Z" fill="#E2463C"/>
<path d="M21.0831 22C20.8484 22 20.6138 21.9101 20.435 21.7314L16.0396 17.336C15.6821 16.9776 15.6821 16.3973 16.0396 16.0398C16.398 15.6814 16.9783 15.6814 17.3367 16.0398L21.7312 20.4352C22.0896 20.7936 22.0896 21.373 21.7312 21.7314C21.5524 21.9101 21.3178 22 21.0831 22Z" fill="#E2463C"/>
</g>
<defs>
<clipPath id="clip0_338_1538">
<rect width="22" height="22" fill="white"/>
</clipPath>
</defs>
</svg>
