<svg width="240" height="69" viewBox="0 0 240 69" fill="none" xmlns="http://www.w3.org/2000/svg">
<path fill-rule="evenodd" clip-rule="evenodd" d="M231.11 35.6833C236.723 31.3404 239.292 27.1277 238.918 23.2723C238.544 19.4169 235.213 15.7764 228.87 12.5931C222.58 9.43655 213.606 6.87771 202.558 5.05485C180.477 1.41158 150.339 0.744643 117.393 3.94018C84.4458 7.13572 54.9983 13.5819 34.0285 21.4007C23.5365 25.3128 15.2219 29.5485 9.65583 33.8549C4.04261 38.1979 1.47345 42.4106 1.84739 46.266C2.22134 50.1214 5.55219 53.7619 11.8954 56.9452C18.1853 60.1017 27.159 62.6606 38.2072 64.4834C60.2886 68.1267 90.4261 68.7936 123.373 65.5981C156.32 62.4025 185.767 55.9564 206.737 48.1375C217.229 44.2255 225.543 39.9898 231.11 35.6833ZM123.469 66.5934C189.484 60.1905 241.618 40.7518 239.913 23.1757C238.209 5.59965 183.311 -3.45801 117.296 2.94485C51.2811 9.34772 -0.852663 28.7865 0.852066 46.3625C2.55679 63.9386 57.4544 72.9963 123.469 66.5934Z" fill="#E2463C" fill-opacity="0.5"/>
</svg>
